# xmcd
#
# Track frame offsets:
#	150
#	12121
#	23647
#	33492
#	45094
#	53716
#	66935
#	77401
#	86925
#	98437
#	108721
#	119630
#
# Disc length: 1740 seconds
#
# Revision: 1
# Processed by: cddbd v1.5.2PL0 Copyright (c) Steve Scherf et al.
# Submitted via: audiograbber 1.83.01
#
DISCID=8c06ca0c
DTITLE=Fats Domino - Fats On Fire
DYEAR=1964
DGENRE=Blues/Rock&Roll
TTITLE0=I Don't Want To Set The World On Fire
TTITLE1=You Know I Miss You
TTITLE2=Fats On Fire
TTITLE3=The Land Of Make-Believe
TTITLE4=Old Man Trouble
TTITLE5=Love Me
TTITLE6=Mary, Oh Mary
TTITLE7=Gotta Get A Job
TTITLE8=The Fat Man
TTITLE9=Valley Of Tears
TTITLE10=Fats Shuffle
TTITLE11=I'm A Fool To Care
EXTD=
EXTT0=
EXTT1=
EXTT2=
EXTT3=
EXTT4=
EXTT5=
EXTT6=
EXTT7=
EXTT8=
EXTT9=
EXTT10=
EXTT11=
PLAYORDER=
